<svg width="17" height="17" viewBox="0 0 17 17" fill="none" xmlns="http://www.w3.org/2000/svg">
<path d="M8.5 5.49454V11.5055M5.49454 8.5H11.5055M14.875 8.5C14.875 9.33718 14.7101 10.1662 14.3897 10.9396C14.0694 11.7131 13.5998 12.4158 13.0078 13.0078C12.4158 13.5998 11.7131 14.0694 10.9396 14.3897C10.1662 14.7101 9.33718 14.875 8.5 14.875C7.66282 14.875 6.83384 14.7101 6.06039 14.3897C5.28694 14.0694 4.58417 13.5998 3.99219 13.0078C3.40022 12.4158 2.93064 11.7131 2.61027 10.9396C2.28989 10.1662 2.125 9.33718 2.125 8.5C2.125 6.80924 2.79665 5.18774 3.99219 3.99219C5.18774 2.79665 6.80924 2.125 8.5 2.125C10.1908 2.125 11.8123 2.79665 13.0078 3.99219C14.2033 5.18774 14.875 6.80924 14.875 8.5Z" stroke="#464F60" stroke-width="1.5" stroke-linecap="round" stroke-linejoin="round"/>
</svg>
