<svg width="9" height="9" viewBox="0 0 9 9" fill="none" xmlns="http://www.w3.org/2000/svg">
<g clip-path="url(#clip0_375_3480)">
<path d="M8.41664 7.51952L6.53195 5.63484C6.99912 5.06527 7.2807 4.33571 7.2807 3.54056C7.2807 1.71667 5.80079 0.236755 3.9769 0.236755C2.15141 0.236755 0.673096 1.71667 0.673096 3.54056C0.673096 5.36445 2.15141 6.84436 3.9769 6.84436C4.77205 6.84436 5.50001 6.56438 6.06958 6.09721L7.95426 7.9803C8.08226 8.10829 8.28864 8.10829 8.41664 7.9803C8.54463 7.8539 8.54463 7.64592 8.41664 7.51952ZM3.9769 6.1868C2.51619 6.1868 1.32906 4.99967 1.32906 3.54056C1.32906 2.08145 2.51619 0.892717 3.9769 0.892717C5.43601 0.892717 6.62474 2.08145 6.62474 3.54056C6.62474 4.99967 5.43601 6.1868 3.9769 6.1868Z" fill="#8E8E8E"/>
</g>
<defs>
<clipPath id="clip0_375_3480">
<rect width="8.19151" height="8.19151" fill="white" transform="translate(0.49707 0.06073)"/>
</clipPath>
</defs>
</svg>
