<svg width="39" height="37" viewBox="0 0 39 37" fill="none" xmlns="http://www.w3.org/2000/svg">
<g filter="url(#filter0_d_739_1838)">
<rect x="2.75" y="3.75" width="29.5" height="27.5" rx="13.75" stroke="#BB0000" stroke-width="1.5" shape-rendering="crispEdges"/>
<path d="M20.1111 11.7778V13.3333C20.1111 13.5396 20.0292 13.7374 19.8833 13.8833C19.7374 14.0292 19.5396 14.1111 19.3333 14.1111C19.1271 14.1111 18.9292 14.0292 18.7834 13.8833C18.6375 13.7374 18.5556 13.5396 18.5556 13.3333V12.5556H11.5556V19.5556H12.3333C12.5396 19.5556 12.7374 19.6375 12.8833 19.7834C13.0292 19.9292 13.1111 20.1271 13.1111 20.3333C13.1111 20.5396 13.0292 20.7374 12.8833 20.8833C12.7374 21.0292 12.5396 21.1111 12.3333 21.1111H10.7778C10.5715 21.1111 10.3737 21.0292 10.2278 20.8833C10.0819 20.7374 10 20.5396 10 20.3333V11.7778C10 11.5715 10.0819 11.3737 10.2278 11.2278C10.3737 11.0819 10.5715 11 10.7778 11H19.3333C19.5396 11 19.7374 11.0819 19.8833 11.2278C20.0292 11.3737 20.1111 11.5715 20.1111 11.7778ZM15.4444 23.4444V22.6667C15.4444 22.4604 15.3625 22.2626 15.2166 22.1167C15.0708 21.9708 14.8729 21.8889 14.6667 21.8889C14.4604 21.8889 14.2626 21.9708 14.1167 22.1167C13.9708 22.2626 13.8889 22.4604 13.8889 22.6667V24.2222C13.8889 24.4285 13.9708 24.6263 14.1167 24.7722C14.2626 24.9181 14.4604 25 14.6667 25H23.2222C23.4285 25 23.6263 24.9181 23.7722 24.7722C23.9181 24.6263 24 24.4285 24 24.2222V15.6667C24 15.4604 23.9181 15.2626 23.7722 15.1167C23.6263 14.9708 23.4285 14.8889 23.2222 14.8889H21.6667C21.4604 14.8889 21.2626 14.9708 21.1167 15.1167C20.9708 15.2626 20.8889 15.4604 20.8889 15.6667C20.8889 15.8729 20.9708 16.0708 21.1167 16.2166C21.2626 16.3625 21.4604 16.4444 21.6667 16.4444H22.4444V23.4444H15.4444ZM18.5556 20.3333C18.7618 20.3333 18.9597 20.2514 19.1055 20.1055C19.2514 19.9597 19.3333 19.7618 19.3333 19.5556V16.4444C19.3333 16.2382 19.2514 16.0403 19.1055 15.8945C18.9597 15.7486 18.7618 15.6667 18.5556 15.6667H15.4444C15.2382 15.6667 15.0403 15.7486 14.8945 15.8945C14.7486 16.0403 14.6667 16.2382 14.6667 16.4444V19.5556C14.6667 19.7618 14.7486 19.9597 14.8945 20.1055C15.0403 20.2514 15.2382 20.3333 15.4444 20.3333H18.5556Z" fill="#BB0000"/>
</g>
<defs>
<filter id="filter0_d_739_1838" x="0" y="0" width="39" height="37" filterUnits="userSpaceOnUse" color-interpolation-filters="sRGB">
<feFlood flood-opacity="0" result="BackgroundImageFix"/>
<feColorMatrix in="SourceAlpha" type="matrix" values="0 0 0 0 0 0 0 0 0 0 0 0 0 0 0 0 0 0 127 0" result="hardAlpha"/>
<feOffset dx="2" dy="1"/>
<feGaussianBlur stdDeviation="2"/>
<feComposite in2="hardAlpha" operator="out"/>
<feColorMatrix type="matrix" values="0 0 0 0 0 0 0 0 0 0 0 0 0 0 0 0 0 0 0.25 0"/>
<feBlend mode="normal" in2="BackgroundImageFix" result="effect1_dropShadow_739_1838"/>
<feBlend mode="normal" in="SourceGraphic" in2="effect1_dropShadow_739_1838" result="shape"/>
</filter>
</defs>
</svg>
