<svg width="18" height="19" viewBox="0 0 18 19" fill="none" xmlns="http://www.w3.org/2000/svg">
<path d="M5.40477 14.064L9.00477 10.464L12.6048 14.064L13.3128 13.356L9.71277 9.75595L13.3128 6.15595L12.6048 5.44795L9.00477 9.04795L5.40477 5.44795L4.69677 6.15595L8.29677 9.75595L4.69677 13.356L5.40477 14.064ZM9.00777 18.756C7.76377 18.756 6.59377 18.52 5.49777 18.048C4.40244 17.5753 3.44943 16.934 2.63877 16.124C1.8281 15.314 1.18644 14.362 0.713768 13.268C0.241102 12.174 0.00476837 11.0043 0.00476837 9.75895C0.00476837 8.51362 0.241102 7.34362 0.713768 6.24895C1.18577 5.15362 1.8261 4.20062 2.63477 3.38995C3.44344 2.57928 4.39577 1.93762 5.49177 1.46495C6.58777 0.992284 7.75777 0.755951 9.00177 0.755951C10.2458 0.755951 11.4158 0.992284 12.5118 1.46495C13.6071 1.93695 14.5601 2.57762 15.3708 3.38695C16.1814 4.19628 16.8231 5.14862 17.2958 6.24395C17.7684 7.33928 18.0048 8.50895 18.0048 9.75295C18.0048 10.997 17.7688 12.167 17.2968 13.263C16.8248 14.359 16.1834 15.3119 15.3728 16.122C14.5621 16.9319 13.6101 17.5736 12.5168 18.047C11.4234 18.5203 10.2538 18.7566 9.00777 18.756ZM9.00477 17.756C11.2381 17.756 13.1298 16.9809 14.6798 15.431C16.2298 13.8809 17.0048 11.9893 17.0048 9.75595C17.0048 7.52262 16.2298 5.63095 14.6798 4.08095C13.1298 2.53095 11.2381 1.75595 9.00477 1.75595C6.77143 1.75595 4.87977 2.53095 3.32977 4.08095C1.77977 5.63095 1.00477 7.52262 1.00477 9.75595C1.00477 11.9893 1.77977 13.8809 3.32977 15.431C4.87977 16.9809 6.77143 17.756 9.00477 17.756Z" fill="white"/>
</svg>
