<svg width="19" height="19" viewBox="0 0 19 19" fill="none" xmlns="http://www.w3.org/2000/svg">
<path d="M18.0143 4.60684V16.9391C18.0143 17.4566 17.8411 17.889 17.4946 18.2362C17.1481 18.5835 16.7153 18.7567 16.1963 18.756H1.83231C1.31406 18.756 0.88168 18.5827 0.53518 18.2362C0.18868 17.8897 0.0150551 17.457 0.0143051 16.938V2.57397C0.0143051 2.05572 0.18793 1.62334 0.53518 1.27684C0.88243 0.930341 1.31481 0.756716 1.83231 0.755966H14.1634L18.0143 4.60684ZM16.8893 5.08722L13.6831 1.88097H1.83231C1.62981 1.88097 1.46368 1.94584 1.33393 2.07559C1.20418 2.20534 1.13931 2.37147 1.13931 2.57397V16.9391C1.13931 17.1408 1.20418 17.3066 1.33393 17.4363C1.46368 17.5661 1.62981 17.631 1.83231 17.631H16.1974C16.3992 17.631 16.5649 17.5661 16.6947 17.4363C16.8244 17.3066 16.8893 17.1405 16.8893 16.938V5.08722ZM9.01431 14.8612C9.63455 14.8612 10.1648 14.6415 10.6051 14.202C11.0453 13.7625 11.2651 13.2322 11.2643 12.6112C11.2636 11.9902 11.0434 11.4603 10.6039 11.0216C10.1644 10.5828 9.63455 10.3631 9.01431 10.3623C8.39406 10.3616 7.86418 10.5813 7.42468 11.0216C6.98518 11.4618 6.76506 11.9917 6.76431 12.6112C6.76356 13.2307 6.98368 13.761 7.42468 14.202C7.86568 14.643 8.39556 14.8627 9.01431 14.8612ZM3.13056 7.24722H11.4803V3.87222H3.13056V7.24722ZM1.13931 5.08722V17.631V1.88097V5.08722Z" fill="white"/>
</svg>
